<svg width="122" height="23" viewBox="0 0 122 23" fill="none" xmlns="http://www.w3.org/2000/svg">
<rect x="3" y="4" width="15" height="15" rx="7.5" stroke="#5F80F3" stroke-width="6" stroke-linecap="round" stroke-linejoin="round"/>
<path d="M37.616 7.32V6.298H44.014V7.32H41.452V16H40.178V7.32H37.616ZM48.9686 15.076C49.6872 15.076 50.3079 14.8193 50.8306 14.306C51.3626 13.7833 51.6286 13.0647 51.6286 12.15C51.6286 11.2353 51.3766 10.5213 50.8726 10.008C50.3686 9.49467 49.7526 9.238 49.0246 9.238C48.3059 9.238 47.7039 9.49467 47.2186 10.008C46.7332 10.5213 46.4906 11.24 46.4906 12.164C46.4906 13.0787 46.7239 13.7927 47.1906 14.306C47.6572 14.8193 48.2499 15.076 48.9686 15.076ZM46.2386 15.034C45.5386 14.306 45.1886 13.3493 45.1886 12.164C45.1886 10.9787 45.5572 10.022 46.2946 9.294C47.0319 8.55667 47.9559 8.188 49.0666 8.188C50.1772 8.188 51.1012 8.55667 51.8386 9.294C52.5759 10.022 52.9446 10.9787 52.9446 12.164C52.9446 13.34 52.5572 14.2967 51.7826 15.034C51.0172 15.762 50.0792 16.126 48.9686 16.126C47.8579 16.126 46.9479 15.762 46.2386 15.034ZM57.0583 14.964H58.1083V16H56.8203C55.4856 16 54.8183 15.342 54.8183 14.026V9.35H53.8243V8.314H54.8183V6.41H56.1063V8.314H58.0943V9.35H56.1063V14.026C56.1063 14.3713 56.1763 14.614 56.3163 14.754C56.4563 14.894 56.7036 14.964 57.0583 14.964ZM64.7368 14.25C65.2502 13.7273 65.5068 13.032 65.5068 12.164C65.5068 11.296 65.2502 10.6007 64.7368 10.078C64.2328 9.55533 63.6215 9.294 62.9028 9.294C62.1935 9.294 61.5822 9.546 61.0688 10.05C60.5648 10.554 60.3128 11.24 60.3128 12.108C60.3128 12.976 60.5695 13.6807 61.0828 14.222C61.5962 14.7633 62.2075 15.034 62.9168 15.034C63.6262 15.034 64.2328 14.7727 64.7368 14.25ZM62.6788 16.126C61.6335 16.126 60.7608 15.7527 60.0608 15.006C59.3608 14.25 59.0108 13.2887 59.0108 12.122C59.0108 10.946 59.3562 9.99867 60.0468 9.28C60.7468 8.552 61.6242 8.188 62.6788 8.188C63.3322 8.188 63.9015 8.342 64.3868 8.65C64.8815 8.958 65.2548 9.35933 65.5068 9.854V8.314H66.7948V16H65.5068V14.432C65.2548 14.936 64.8815 15.3467 64.3868 15.664C63.9015 15.972 63.3322 16.126 62.6788 16.126ZM68.8938 16V5.64H70.1678V16H68.8938ZM83.51 13.914C84.1913 13.214 84.532 12.29 84.532 11.142C84.532 9.994 84.1913 9.07467 83.51 8.384C82.8286 7.684 81.956 7.334 80.892 7.334C79.8373 7.334 78.9646 7.684 78.274 8.384C77.5926 9.07467 77.252 9.994 77.252 11.142C77.252 12.29 77.5973 13.214 78.288 13.914C78.9786 14.614 79.8513 14.964 80.906 14.964C81.9606 14.964 82.8286 14.614 83.51 13.914ZM80.906 16.098C79.5153 16.098 78.344 15.6313 77.392 14.698C76.44 13.7553 75.964 12.57 75.964 11.142C75.964 9.70467 76.44 8.524 77.392 7.6C78.344 6.66667 79.5153 6.2 80.906 6.2C82.2966 6.2 83.4633 6.66667 84.406 7.6C85.358 8.524 85.834 9.70467 85.834 11.142C85.834 12.5793 85.358 13.7647 84.406 14.698C83.4633 15.6313 82.2966 16.098 80.906 16.098ZM88.6931 8.314V9.616C89.1505 8.664 89.9298 8.188 91.0311 8.188V9.518H90.6951C90.0418 9.518 89.5425 9.69067 89.1971 10.036C88.8611 10.372 88.6931 10.96 88.6931 11.8V16H87.4191V8.314H88.6931ZM97.7954 14.25C98.3088 13.7273 98.5654 13.032 98.5654 12.164C98.5654 11.296 98.3088 10.6007 97.7954 10.078C97.2914 9.55533 96.6801 9.294 95.9614 9.294C95.2521 9.294 94.6408 9.546 94.1274 10.05C93.6234 10.554 93.3714 11.24 93.3714 12.108C93.3714 12.976 93.6281 13.6807 94.1414 14.222C94.6548 14.7633 95.2661 15.034 95.9754 15.034C96.6848 15.034 97.2914 14.7727 97.7954 14.25ZM95.7374 16.126C94.6921 16.126 93.8194 15.7527 93.1194 15.006C92.4194 14.25 92.0694 13.2887 92.0694 12.122C92.0694 10.946 92.4148 9.99867 93.1054 9.28C93.8054 8.552 94.6828 8.188 95.7374 8.188C96.3908 8.188 96.9601 8.342 97.4454 8.65C97.9401 8.958 98.3134 9.35933 98.5654 9.854V5.64H99.8534V16H98.5654V14.432C98.3134 14.936 97.9401 15.3467 97.4454 15.664C96.9601 15.972 96.3908 16.126 95.7374 16.126ZM105.172 16.126C104.071 16.126 103.175 15.762 102.484 15.034C101.794 14.306 101.448 13.3447 101.448 12.15C101.448 10.9553 101.798 9.99867 102.498 9.28C103.198 8.552 104.104 8.188 105.214 8.188C106.334 8.188 107.23 8.53333 107.902 9.224C108.584 9.90533 108.924 10.778 108.924 11.842C108.924 12.1127 108.906 12.3647 108.868 12.598H102.75C102.788 13.3633 103.026 13.97 103.464 14.418C103.912 14.8567 104.482 15.076 105.172 15.076C105.695 15.076 106.134 14.9593 106.488 14.726C106.852 14.4927 107.118 14.1847 107.286 13.802H108.658C108.416 14.474 107.996 15.0293 107.398 15.468C106.81 15.9067 106.068 16.126 105.172 16.126ZM107.594 11.674C107.585 10.9367 107.352 10.3487 106.894 9.91C106.437 9.462 105.868 9.238 105.186 9.238C104.514 9.238 103.954 9.45733 103.506 9.896C103.058 10.3253 102.811 10.918 102.764 11.674H107.594ZM111.785 8.314V9.616C112.242 8.664 113.022 8.188 114.123 8.188V9.518H113.787C113.134 9.518 112.634 9.69067 112.289 10.036C111.953 10.372 111.785 10.96 111.785 11.8V16H110.511V8.314H111.785ZM115.385 10.484C115.385 9.84 115.651 9.29867 116.183 8.86C116.725 8.412 117.42 8.188 118.269 8.188C119.128 8.188 119.8 8.40733 120.285 8.846C120.771 9.27533 121.037 9.868 121.083 10.624H119.767C119.749 10.1947 119.604 9.84933 119.333 9.588C119.063 9.32667 118.685 9.196 118.199 9.196C117.723 9.196 117.345 9.31267 117.065 9.546C116.795 9.77 116.659 10.064 116.659 10.428C116.659 10.7827 116.813 11.058 117.121 11.254C117.439 11.45 117.817 11.5947 118.255 11.688C118.703 11.772 119.147 11.8747 119.585 11.996C120.033 12.108 120.411 12.3273 120.719 12.654C121.037 12.9713 121.195 13.4287 121.195 14.026C121.195 14.614 120.925 15.1133 120.383 15.524C119.851 15.9253 119.156 16.126 118.297 16.126C117.439 16.126 116.748 15.9113 116.225 15.482C115.712 15.0527 115.432 14.46 115.385 13.704H116.701C116.72 14.1333 116.869 14.4787 117.149 14.74C117.439 14.992 117.831 15.118 118.325 15.118C118.829 15.118 119.221 15.0107 119.501 14.796C119.791 14.5813 119.935 14.3107 119.935 13.984C119.935 13.648 119.823 13.382 119.599 13.186C119.375 12.99 119.095 12.8547 118.759 12.78C118.423 12.7053 118.055 12.6167 117.653 12.514C117.261 12.4113 116.897 12.304 116.561 12.192C116.225 12.0707 115.945 11.8653 115.721 11.576C115.497 11.2867 115.385 10.9227 115.385 10.484Z" fill="black"/>
</svg>
