<svg width="169" height="169" viewBox="0 0 169 169" fill="none" xmlns="http://www.w3.org/2000/svg">
<circle cx="84.5" cy="84.5" r="84.5" fill="#EE6060"/>
<path d="M157.943 126.289C168.162 108.33 171.446 87.2483 167.175 67.0315C162.903 46.8147 151.372 28.8638 134.761 16.5732C118.151 4.28261 97.6128 -1.49576 77.0305 0.330783C56.4483 2.15732 37.2487 11.4622 23.0622 26.4858C8.87576 41.5094 0.685849 61.2104 0.0411403 81.8635C-0.603568 102.517 6.34162 122.69 19.5634 138.569C32.7852 154.449 51.3671 164.933 71.7953 168.039C92.2236 171.146 113.082 166.66 130.427 155.429L84.5 84.5L157.943 126.289Z" fill="#F4E661"/>
<path d="M115.2 163.226C120.593 161.123 125.755 158.471 130.606 155.313L84.5 84.5L115.2 163.226Z" fill="#FFA370"/>
<path d="M155.199 130.781C164.352 116.798 169.154 100.415 168.996 83.7029C168.839 66.9912 163.729 50.7014 154.313 36.8937C144.898 23.0859 131.599 12.3803 116.099 6.13063C100.599 -0.119047 83.5938 -1.63209 67.2338 1.78283C50.8739 5.19775 35.8941 13.3873 24.1885 25.3158C12.483 37.2442 4.57752 52.3759 1.47183 68.7974C-1.63386 85.2188 0.199713 102.192 6.74068 117.572C13.2816 132.951 24.2362 146.045 38.2192 155.199L84.5 84.5L155.199 130.781Z" fill="#5F80F3"/>
</svg>
