<svg width="24" height="21" viewBox="0 0 24 21" fill="none" xmlns="http://www.w3.org/2000/svg">
<path d="M23.616 8.6544H20.6304C19.8 3.744 15.528 0 10.3872 0C4.65119 0 0 4.656 0 10.392C0 16.128 4.65119 20.784 10.3872 20.784C13.0032 20.784 15.3936 19.8144 17.2176 18.2208L15.0672 15.4896C13.8336 16.6224 12.192 17.3184 10.392 17.3184C6.57119 17.3184 3.4656 14.2128 3.4656 10.392C3.4656 6.5712 6.57119 3.4656 10.392 3.4656C13.6128 3.4656 16.3152 5.6736 17.088 8.6544H14.064C13.6848 8.6544 13.5696 8.8992 13.8096 9.192L18.408 14.8512C18.648 15.1488 19.0368 15.1488 19.2816 14.8512L23.88 9.192C24.1104 8.8992 23.9952 8.6544 23.616 8.6544Z" fill="black"/>
</svg>
